<svg xmlns="http://www.w3.org/2000/svg" viewBox="0 0 1280 720"><g fill="none" stroke-width="2"><path stroke="#105776" d="M396.98 301.63a.99.99 0 0 0-.99-.99h-39.78a.99.99 0 0 0-.99.99v111.88a.99.99 0 0 0 .99.99h39.78a.99.99 0 0 0 .99-.99V301.63M440.15 302.6l-24.44.2q-1.97.01-1.97 1.98l-.19 109.26q-.01.49.49.49h35.53q.35 0 .35-.35l.09-77.2q0-1.54.68-.15l37.21 75.57a2.7 2.67 78.9 0 0 2.19 1.49q12.97 1.05 25.89-.25.53-.05.76-.53l37.73-76.61a.62.62 0 0 1 1.17.17c1.12 6.76-.66 12.89-.11 20.84 1.04 15.14.08 30.72.49 45.96.09 3.25-.49 7.39-.1 11.14" vector-effect="non-scaling-stroke"/><path stroke="#020d14" d="m555.92 414.61 9.38.12q.88.01.51.81-.22.49.31 1 .35.34.84.38c1.65.13 2.82.68 4.51.52 5.08-.47 9.92.71 15.85.18 2.82-.26 5.41.78 8.44.39 2.61-.33 4.18 1.1 6.3 1.23q3.25.2 7.69-.75 6.93-1.48 19.74-.6.46.03.82-.25 6.99-5.39 10.92-13.29.24-.5.72-.79l6.12-3.74q.38-.23.82-.15 3.39.63 6.33-.92.48-.25 1.03-.24c3.8.06 7.77-.99 11.04-1.04q8.05-.13 15.94 1.32c5.5 1.01 10.91.68 16.45 1.39a.43.38 64.1 0 1 .22.09l8.8 6.45q.46.33.74.82 2.4 4.15 5.77 7.64.37.38.9.42 4.17.32 8.02 1.79c5.19 1.97 9.6.84 15.62.07 9.4-1.19 23.05.97 34.98.17 5.88-.39 11.13-.13 17.08-.32q2.38-.08 4.16-1.06.44-.24.94-.24l2.83-.03q.51 0 .87-.36c3.83-3.83 7.72-8.18 11.75-11.76 1.9-1.68 2.84-3.62 4.27-5.64 1.67-2.35 4.47-4.1 6.06-7.19a1.32 1.31-86.8 0 1 .7-.63q4.44-1.7 8.89-3.31c1.48-.54 3.23-1.67 5.35-1.76a.66.65-24.1 0 1 .51.19l4.81 4.56q.34.32.52.75c.78 1.9 2.64 3.06 3.49 4.61q1.54 2.78 3.09 5.57.24.44.68.67c1.87 1.02 3.37 1.61 4.57 3.54 2.72 4.38 8.08 11.48 13.96 11.28q3.52-.11 13.73.94 6.21.64 22.15 0c3.63-.14 6.54-1.8 9.96-2.93" vector-effect="non-scaling-stroke"/><path stroke="#105776" d="M915.1 414.51q-.17-.27.46-.31.45-.04.45-.49v-.39" vector-effect="non-scaling-stroke"/><path stroke="#020d14" d="M916.01 413.32q.9-1.71-.28-3.57c-4.7-7.37-11.1-13.19-16.2-19.46q-4.81-5.92-10.03-11.48c-4.67-4.98-8.77-10.57-13.44-15.69q-.28-.31-.67-.4-1.48-.36-1.94-1.74a1.27 1.24-89.2 0 0-.74-.78q-3.58-1.41-5.53-4.66-.29-.48.11-.87 2.32-2.33 4.02-5.15c.56-.93.63-2.25 1.68-2.95q.41-.29.65-.72 1.71-3.18 4.17-5.69c.57-.59.7-1.46.63-2.2" vector-effect="non-scaling-stroke"/><path stroke="#105776" d="m878.44 337.96 28.58-33.71q.48-.57-.24-.74-2.63-.65-6.78-.69-17.99-.18-35.99-.33c-3.77-.03-5.61.66-7.75 3.54-5.91 7.94-13.6 18-22.58 27.75q-.81.88-1.61-.02-12.9-14.59-24.37-28.54c-.86-1.05-2.31-2.12-3.71-2.24-12.79-1.09-23.32-.16-39.81-.22-1.71 0-3.58.49-5.44.51q-.64.01-.22.49l3.18 3.68" vector-effect="non-scaling-stroke"/><path stroke="#020d14" d="M761.7 307.44q2.41 5.52 5.53 10.58c2.91 4.71 7.98 7.67 10.58 12.5 1.47 2.73 2.43 4.95 4.8 7.03q4.06 3.55 8.58 6.5 1.59 1.05 1.47 4.14a1.53 1.5 28.1 0 0 .3.96q2.36 3.13 2.26 7.06-.02.43-.26.79c-5.94 8.69-10.8 17.04-18.8 24.14-2.03 1.8-3.83 4.57-6.55 6.26a1.27 1.27 0 0 0-.53.72q-.59 2.13-3.34 2.64-2.68.48-5.71 3.33-.36.34-.86.37c-4.05.31-9.79.1-10.55-4.71q-.07-.48-.46-.77-3.47-2.62-4.8-6.59c-1.58-4.72-2.93-7.65-4.27-11.58q-.17-.49-.64-.7c-2.35-1.05-2.53-2.15-2.55-4.82-.02-1.97-1.58-3.32-2.19-4.75q-1.09-2.55-2.09-5.16-.18-.45-.6-.67c-1.94-1.02-.57-3.47-2.81-4.38q-.42-.17-.74-.48l-3.02-2.94a.86.83 19.8 0 1-.26-.53c-.58-5.35-3.26-9.68-4.9-13.61-1.14-2.71-2.67-7.55-5.55-8.4q-.47-.14-.71-.57c-.96-1.71-1.91-2.93-2.28-4.95-1.32-7.1-4.84-10.96-8.7-16.06q-.32-.42-.83-.52c-.94-.2-1.34-.64-2.31-.71q-22.29-1.52-44.64-.82c-10.14.31-7.66 2.96-12.49 9.41q-3.03 4.04-6.2 8.12a1.35 1.34 63.2 0 0-.29.89c.31 8.11-6.43 12.22-7.69 19.7q-.09.49-.39.88c-2.88 3.69-5.36 7.56-8.09 11.35q-1.96 2.71-2.43 6.1c-.36 2.65-2.8 3.6-3.62 5.92q-.46 1.28-.72 2.69a1.84 1.76-20.2 0 1-.41.84c-1.95 2.18-3.85 5.14-3.85 8.16q-.01 1.41-.73 2.05c-1.63 1.46-4.91 5.54-6.68 6.18q-1.23.44-1.65.4a2.85 2.84-87 0 1-2.61-2.9c.07-3.11-1.7-5.38-1.93-8.33-.2-2.54-.5-4.44-.23-7.25.35-3.58-1.24-6.6-1.47-9.62q-.7-9.36-.9-18.86" vector-effect="non-scaling-stroke"/><path stroke="#105776" d="m591.89 336.47-.14-33.09q0-.47-.47-.51-8.23-.71-16.25.05" vector-effect="non-scaling-stroke"/><path stroke="#020d14" d="M575.03 302.92c-.4-.61-.96-1.07-1.74-1.08q-15.23-.24-30.44.04c-2.23.04-5.69-.45-8.68.28a1.14 1.13 7.1 0 0-.74.57q-.6 1.13-1.79 1.5-.52.17-.74.68c-1.74 4.11-4.38 7.3-6.11 11.36-1.15 2.69-3.44 5.27-5.03 7.76-2.34 3.65-5.12 7.23-6.66 11.88q-.16.49-.53.84-2.72 2.62-3.26 6.48-.07.5-.46.83c-1.69 1.41-4.98 1.27-7.16 1.46q-.5.05-.79.46-.31.44-.83.46-.56.03-1.17-.54c-3-2.82-2.91-6.09-4.66-8.94-1.64-2.66-4.43-5.12-5.38-7.99-1.03-3.11-1.51-6.2-2.94-8.94-2.15-4.13-4.91-7.73-6.95-11.99-5.45-11.36-9.72-6.14-19.58-6.38q-9.67-.24-19.24.94" vector-effect="non-scaling-stroke"/><path stroke="#12638a" d="m575.03 302.92-40.59.03q-.51 0-.75.46-13.28 25.85-27.14 51.4-1.6 2.96-3.45 5.81-.29.44-.55-.02c-10.04-17.99-18.84-36.64-28.27-54.95-.83-1.6-2.02-3.01-3.77-2.94q-17.09.72-30.36-.11M878.44 337.96l-13.3 16.06a.8.79-45.9 0 0 .01 1.04l50.86 58.26M915.1 414.51q-.43-.38-.66-.38-21.34.22-42.69.41-2.5.03-6.48-.45-.52-.06-.87-.46l-30.79-36.03q-.54-.63-1.1-.02l-33.18 36.5q-.29.32-.73.31-16.08-.4-32.16-.24-25.32.25-50.57-.52a1.55 1.54 78.5 0 1-1.35-.9c-2.71-5.88-4.87-11.88-8.93-16.97q-.31-.39-.8-.41c-15.27-.78-27.21.46-40.86.04q-10.02-.31-20.1-.31c-3.28-.01-3.36 2.98-4.5 5.04q-3.84 6.95-8.01 13.74-.27.43-.77.45-13.43.64-26.81.3c-17.48-.45-31.74-.27-47.82 0" vector-effect="non-scaling-stroke"/><path stroke="#12638a" d="m761.7 307.44 38.97 46.2a1.26 1.26 0 0 1-.02 1.64c-5.12 5.89-9.93 12.58-15.57 18.03-3.58 3.47-6.09 7.21-10.02 11.49q-2.97 3.23-6.61 7.84-6.35 8.05-13.85 15.11-.36.34-.78.08-1.7-1.07-2.21-2.5-2.54-7.28-6.44-13.88c-1.34-2.27-2.18-4.85-3.24-6.88-10.36-19.78-20.16-39.87-30.58-59.61-3.75-7.1-6.47-13.26-11.37-21.95q-.21-.36-.62-.36l-49.28.19a3.14 3.14 0 0 0-2.78 1.71l-54.54 106.26a.52.52 0 0 1-.98-.25c.17-9.39-.96-19.46-.01-28.77.04-.47-.11-.76-.31-1.15q-.23-.44-.25-.94-.44-19.57-.06-39.14.04-2.03.74-4.09" vector-effect="non-scaling-stroke"/><path stroke="#105776" d="M935.39 320.07a14.9 14.9 0 0 0-14.9-14.9 14.9 14.9 0 0 0-14.9 14.9 14.9 14.9 0 0 0 14.9 14.9 14.9 14.9 0 0 0 14.9-14.9M390.55 307.04a.26.26 0 0 0-.26-.26h-28.76a.26.26 0 0 0-.26.26v100.82a.26.26 0 0 0 .26.26h28.76a.26.26 0 0 0 .26-.26V307.04M440.2 309.1l-19.68.23a.75.75 0 0 0-.74.75l.05 97.21a.95.95 0 0 0 .96.95l22.07-.32q.6-.01.6-.61l.22-49.91" vector-effect="non-scaling-stroke"/><path stroke="#12638a" d="M443.68 357.4q1.06-11.62.03-23.49" vector-effect="non-scaling-stroke"/><path stroke="#105776" d="m443.71 333.91.54-3.15" vector-effect="non-scaling-stroke"/><path stroke="#12638a" d="m444.25 330.76 9.17.48q.56.03.83.54c12.9 24.2 25.36 50.91 37.8 76.39a1.12 1.12 0 0 0 1.03.64l18.61-.2q1.72-.02 2.47-1.56 5.28-10.84 10.32-21.39c1.94-4.06 6.17-11.19 8.33-17.4.72-2.1 2.3-3.27 3.12-5.49 3.17-8.57 8.05-16.85 12.08-25.09 1.07-2.18 2.54-3.92 3.94-5.93q.26-.36.7-.35l8.42.23a.37.36 90 0 1 .35.36q.03 25.82.19 51.72c.05 8.61.43 15.89-.29 23.73a1.27 1.26 2.3 0 0 1.27 1.37l22.85-.31a.9.87-38.3 0 0 .24-1.74q-.04-.01-.27-.05-.12-.02-.11-.15c.62-10.23.81-20.81.89-31.06.18-22.15-.82-44.3-.43-66.43q.01-.54-.53-.54-7.38.03-14.72-.57c-5.07-.42-10.17.86-14.81.72q-8.64-.26-16.95-.01a2.15 2.14 14.1 0 0-1.81 1.08c-7.17 12.34-13.37 25.03-20.39 37.68q-5.06 9.13-9.65 18.51c-.98 2-3.1 4.21-3.59 7.07a.68.68 0 0 1-1.27.19l-31.88-63.43a2.06 2.04 76.1 0 0-1.86-1.13l-28.1.46" vector-effect="non-scaling-stroke"/><path stroke="#020d14" d="M444.25 330.76q3.25-1.07 7.21-1.3c3.33-.19 5.24 1.72 6.21 4.63q.16.46.6.67c3.29 1.53 3.6 3.37 3.84 6.68.3 4.13 4.71 6.11 6.19 9.44q1.01 2.25 1.58 4.65c.95 3.94 2.55 6.08 4.92 8.98 1.21 1.48 1.41 3.21 1.79 4.98q.09.4.38.7 1.38 1.4 1.3 3.31-.02.49.22.91 2.13 3.81 4.3 7.6c2.04 3.55 2.61 7.94 5 11.46q4.71 6.94 7.49 12.57.25.51.82.5l14.9-.36a2.51 2.29-17.1 0 0 2.16-3.66q-1.11-1.53 1.01-3.63 1.9-1.9 2.27-3.39.13-.49.43-.88 1.68-2.2 2.54-4.21c2.2-5.16 3.98-9.37 7.48-13.46q2.48-2.91 2.84-6.9.05-.52.42-.9 3.05-3.07 3.64-7.34.08-.58.46-1.02 1.48-1.77 1.51-4.16.01-.54.45-.84 1.06-.73 1.03-2.14-.02-.53.45-.79 1.69-.94.89-3.17a.7.69 47.6 0 1 .02-.51l3.86-8.85q.26-.6.81-.94 2.06-1.29 2.86-3.58.14-.42.48-.71c1.4-1.21 1.66-2.92 2.87-3.98 2.78-2.44 8.59-1.92 12.5-1.03q.48.11.69.55c2.4 5.05 1.04 16.22.08 22-.33 1.96-.05 8.42.77 10.17q.21.44.2.92-.21 9.79-.37 19.58c-.03 2.22.45 4.95-.42 7.61-1.43 4.39-.11 10.29.87 14.75a.85.83.1 0 0 .66.65q2.56.48 5.17.54c4.4.1 8.74 1.01 13.45-.86q.47-.18.62-.66.53-1.6.3-3.34-.78-5.95.44-11.78.29-1.37.06-2.95c-.37-2.46.02-5.28-.13-7.5q-.19-2.68-.16-7.09l.2-37.51q0-.51-.3-.93c-1.44-2-.62-4.44-.8-6.09q-.49-4.29-.71-8.63-.02-.49-.36-.85l-6.17-6.71a1.23 1.21-14.9 0 0-.67-.38c-5.99-1.21-12.36-.01-16.96-.1-4.23-.08-8.66-.69-12.87-.24q-1.76.18-3.56-.03a.76.75-66.4 0 0-.65.26l-6.36 7.29q-.35.4-.49.91c-.63 2.24-2.56 3.88-3.46 5.63q-1.65 3.2-3.76 5.51-2.17 2.36-1.53 5.37.11.5-.23.88c-2.03 2.34-3.37 5.03-5.2 7.55-1.29 1.77-.24 3.29-2.05 5.24a1.15 1.14-25.2 0 0-.3.82q.07 1.82-1.37 2.65-.32.18-.45.52l-2.21 5.32q-.2.48-.68.66c-1.81.69-1.66 2.52-2.28 3.65q-2.75 5.04-6.48 9.97a2.51 2.5-45.3 0 1-3.98.03q-2.31-2.97-4.58-6.82c-.72-1.24-1.9-1.7-2.97-2.63q-.37-.32-.52-.8-3.04-10.23-4.21-12.71-.41-.88-2.23-3.51-.28-.42-.25-.91.05-.72-.84-.74-2.66-1.91-4.06-4.91-.22-.47-.12-.98c.86-4.53-1.95-5.84-3.7-8.69-1.81-2.95-3.06-4.98-4.82-8.78q-1.32-2.85-4.4-4.3-.46-.21-.58-.7c-1.13-5.02-4.27-4.96-7.89-7.62a1.38 1.37-28.9 0 0-.92-.26q-9.16.77-18.24-.01M443.71 333.91q-1.82 12.23-.03 23.49" vector-effect="non-scaling-stroke"/><path stroke="#105776" d="m714.19 399.03 1.91 4.19" vector-effect="non-scaling-stroke"/><path stroke="#12638a" d="M716.1 403.22c.66 3.73 2.02 5.08 5.98 5.03 7.75-.09 15.51.74 23.17.75a1.41 1.4-11.2 0 0 1.3-1.94q-2.17-5.27-4.91-10.46c-15.16-28.68-29.74-57.81-44.35-86.78a2.86 2.85-12 0 0-2.41-1.56q-6.98-.33-14.13-.54-.81-.02-1.65.4-.34.17-.72.17l-26.62-.28a.84.82-75.4 0 0-.75.45l-50.7 99.82a.33.3 13 0 0 .3.43c1.5.08 2.88.59 4.32.54q10.38-.35 21.46-.29 1.6.01 2.39-1.38l9.34-16.52q.51-.9 1.54-.91l69.01-.38q.47 0 .7.41l4.82 8.85" vector-effect="non-scaling-stroke"/><path stroke="#020d14" d="m716.1 403.22 3.23 2.61q.4.32.92.32l9.62-.15a3.47 3.47 0 0 0 3.17-2.16c1.27-3.1 3.18-3.96 3.81-7.74a1.42 1.33-19.4 0 1 .39-.75c1.74-1.75-1.93-5.83-3.14-6.85-2.16-1.8-2.81-3.13-2.37-5.76q.08-.49-.19-.92c-2.16-3.51-3.64-6.98-5.98-10.53q-2.97-4.52-4.62-9.71c-1.19-3.72-5.04-5.66-6.51-9.33-1.14-2.85-1.05-5.78-2.44-8.43q-2.69-5.16-5.24-10.38c-1.56-3.19-3.32-7.38-5.51-9.18-3.12-2.56.45-5.28-2.89-8.34q-.34-.31-.57-.72l-2.44-4.42q-.24-.43-.7-.62c-1.08-.41-1.96-.8-3.16-.83q-20.26-.44-34.73-.34c-2 .01-2.21 1.53-3.1 2.63q-2.52 3.11-4.58 6.57c-.82 1.38-2.26 2.11-3.05 3.64-.91 1.78.3 3.82-1.87 5.44q-.47.35-.71.88-1.01 2.15-2.7 3.81a1.76 1.76 0 0 0-.51.99q-.87 5.21-3.75 9.64-.26.41-.69.64-.63.32-.82.76c-1.52 3.6-3.51 6.94-4.66 10.66q-.33 1.06-1.11 2.57-3.42 6.56-6.99 13.06c-1.35 2.44-3.58 4.67-4.08 8.29q-.07.51-.38.91c-3.88 4.9-5.73 10.1-8.12 15.78q-.35.81-1.09 1.7c-1.53 1.82-1.91 5.51-2.43 7.84q-.51 2.25 1.9 2.35 7.87.33 14.68-.25c5.99-.51 4.7-3.8 6.95-7.61 2.2-3.72 5.05-6.53 7.93-10.81q.26-.4.75-.45c2.35-.23 4.12.54 6.38.23q9.26-1.27 18.56.23c5.17.83 12.8-.99 18.73-.8 9.26.31 18.7-.75 27.75 1.24q.51.11.88.47 3.2 3.14 5.15 7.2a.62.61-10.9 0 1-.6.88q-1.03-.07-.98 1.55" vector-effect="non-scaling-stroke"/><path stroke="#12638a" d="M800.44 363.92q-1.79 1.17-1.81 2.45" vector-effect="non-scaling-stroke"/><path stroke="#105776" d="M798.63 366.37q-1.79 4.05-6.14 6.84" vector-effect="non-scaling-stroke"/><path stroke="#12638a" d="m792.49 373.21-3.03 3.5" vector-effect="non-scaling-stroke"/><path stroke="#105776" d="m789.46 376.71-25.78 29.12q-2.64 2.98 1.34 3.08 15.99.4 32.06-.46.42-.02.71-.34l35.72-39.49" vector-effect="non-scaling-stroke"/><path stroke="#12638a" d="m833.51 368.62 27.64 32.71" vector-effect="non-scaling-stroke"/><path stroke="#105776" d="M861.15 401.33c1.79 1.86 4.76 7.39 7.35 7.41q16.01.13 32-.45 1.54-.05 2.99.15.64.09.21-.4l-45.47-52.24a1.99 1.99 0 0 1-.02-2.58l36.96-44.16q.16-.19-.1-.18-8.19.32-16.35-.27c-5.41-.39-10.61-.29-15.95-.63q-.49-.03-.86.3-2.26 2.04-3.59 3.78-12.12 15.85-24.9 31.09-.32.38-.66.01-13.32-15.03-26.11-30.5-1.33-1.6-2.23-2.38-1.77-1.54-2.92-1.56-14.45-.29-29.7.23-1.01.04-.36.81l36.59 43.7a1.42 1.41 45.8 0 1-.02 1.85l-7.57 8.61" vector-effect="non-scaling-stroke"/><path stroke="#020d14" d="m861.15 401.33.09-2.81q.02-.5-.31-.87c-3.01-3.35-5.98-6.43-8.85-10.14-1.39-1.8-3.83-3.42-4.68-5.4q-.47-1.1-1.05-2.14-.24-.42-.68-.64-.57-.29-.81-.83c-.96-2.22-2.69-3.95-4.66-5.3-1.74-1.19-2.43-2.45-3.63-4.03a1.08 1.04-16.3 0 0-.78-.41l-2.28-.14M789.46 376.71q2.53-1.38 3.03-3.5M798.63 366.37q1.54-1.09 1.81-2.45" vector-effect="non-scaling-stroke"/><path stroke="#105776" d="M933.86 320.03a13.28 13.28 0 0 0-13.28-13.28 13.28 13.28 0 0 0-13.28 13.28 13.28 13.28 0 0 0 13.28 13.28 13.28 13.28 0 0 0 13.28-13.28" vector-effect="non-scaling-stroke"/><path stroke="#105776" d="m923.86 321.99.56 5.27a.56.56 0 0 0 .68.49l.95-.22a.75.75 0 0 0 .56-.89l-1.42-6.38a1.03.99 56.7 0 1 .15-.8q1.88-2.67.75-5.75a1.21 1.19 2.7 0 0-.62-.67q-4.68-2.15-9.73-.8-.55.14-.62.71-.96 8.2.09 14.05.19 1.06 1.24.85.46-.08.49-.55l.36-5.85q.04-.52.56-.49l5.33.38q.61.04.67.65" vector-effect="non-scaling-stroke"/><path stroke="#020d14" d="m664.97 372.67 13.52-.04" vector-effect="non-scaling-stroke"/><path stroke="#105776" d="m678.49 372.63 1.73-.18" vector-effect="non-scaling-stroke"/><path stroke="#020d14" d="m680.22 372.45 12.34-.17" vector-effect="non-scaling-stroke"/><path stroke="#105776" d="m692.56 372.28 7.01-.41q.69-.04.41-.67c-7.39-16.49-17.57-33.83-25.56-46.63q-.33-.53-.16-1.01a.49.49 0 0 0-.9-.39l-12.1 23.93q-.16.3-.48.38-.31.07-.28.49-5.96 12.13-12.03 24.27-.24.47.3.47l16.2-.04" vector-effect="non-scaling-stroke"/><path stroke="#12638a" d="M692.56 372.28q-6.17-1.08-12.34.17M678.49 372.63q-6.8-1.14-13.52.04" vector-effect="non-scaling-stroke"/><path stroke="#105776" d="M924.62 315.329a1.6 1.6 0 0 0-1.522-1.674l-4.336-.204a1.6 1.6 0 0 0-1.673 1.523l-.11 2.317a1.6 1.6 0 0 0 1.523 1.674l4.336.204a1.6 1.6 0 0 0 1.673-1.523l.11-2.317" vector-effect="non-scaling-stroke"/><path stroke="#12638a" d="m659.54 367.16 28.11-.19q.47-.01.87-.27 1.25-.84 2.54-.23.8.37.37-.39-7.52-13.4-14.85-26.9-.83-1.52-2.48-3.41-.39-.45-.69.06-8.43 14.27-15.1 29.47-.82 1.88 1.23 1.86" vector-effect="non-scaling-stroke"/></g><path d="M0 0h1280v720H0V0Zm396.98 301.63a.99.99 0 0 0-.99-.99h-39.78a.99.99 0 0 0-.99.99v111.88a.99.99 0 0 0 .99.99h39.78a.99.99 0 0 0 .99-.99V301.63Zm43.17.97-24.44.2q-1.97.01-1.97 1.98l-.19 109.26q-.01.49.49.49h35.53q.35 0 .35-.35l.09-77.2q0-1.54.68-.15l37.21 75.57a2.7 2.67 78.9 0 0 2.19 1.49q12.97 1.05 25.89-.25.53-.05.76-.53l37.73-76.61a.62.62 0 0 1 1.17.17c1.12 6.76-.66 12.89-.11 20.84 1.04 15.14.08 30.72.49 45.96.09 3.25-.49 7.39-.1 11.14l9.38.12q.88.01.51.81-.22.49.31 1 .35.34.84.38c1.65.13 2.82.68 4.51.52 5.08-.47 9.92.71 15.85.18 2.82-.26 5.41.78 8.44.39 2.61-.33 4.18 1.1 6.3 1.23q3.25.2 7.69-.75 6.93-1.48 19.74-.6.46.03.82-.25 6.99-5.39 10.92-13.29.24-.5.72-.79l6.12-3.74q.38-.23.82-.15 3.39.63 6.33-.92.48-.25 1.03-.24c3.8.06 7.77-.99 11.04-1.04q8.05-.13 15.94 1.32c5.5 1.01 10.91.68 16.45 1.39a.43.38 64.1 0 1 .22.09l8.8 6.45q.46.33.74.82 2.4 4.15 5.77 7.64.37.38.9.42 4.17.32 8.02 1.79c5.19 1.97 9.6.84 15.62.07 9.4-1.19 23.05.97 34.98.17 5.88-.39 11.13-.13 17.08-.32q2.38-.08 4.16-1.06.44-.24.94-.24l2.83-.03q.51 0 .87-.36c3.83-3.83 7.72-8.18 11.75-11.76 1.9-1.68 2.84-3.62 4.27-5.64 1.67-2.35 4.47-4.1 6.06-7.19a1.32 1.31-86.8 0 1 .7-.63q4.44-1.7 8.89-3.31c1.48-.54 3.23-1.67 5.35-1.76a.66.65-24.1 0 1 .51.19l4.81 4.56q.34.32.52.75c.78 1.9 2.64 3.06 3.49 4.61q1.54 2.78 3.09 5.57.24.44.68.67c1.87 1.02 3.37 1.61 4.57 3.54 2.72 4.38 8.08 11.48 13.96 11.28q3.52-.11 13.73.94 6.21.64 22.15 0c3.63-.14 6.54-1.8 9.96-2.93q-.17-.27.46-.31.45-.04.45-.49v-.39q.9-1.71-.28-3.57c-4.7-7.37-11.1-13.19-16.2-19.46q-4.81-5.92-10.03-11.48c-4.67-4.98-8.77-10.57-13.44-15.69q-.28-.31-.67-.4-1.48-.36-1.94-1.74a1.27 1.24-89.2 0 0-.74-.78q-3.58-1.41-5.53-4.66-.29-.48.11-.87 2.32-2.33 4.02-5.15c.56-.93.63-2.25 1.68-2.95q.41-.29.65-.72 1.71-3.18 4.17-5.69c.57-.59.7-1.46.63-2.2l28.58-33.71q.48-.57-.24-.74-2.63-.65-6.78-.69-17.99-.18-35.99-.33c-3.77-.03-5.61.66-7.75 3.54-5.91 7.94-13.6 18-22.58 27.75q-.81.88-1.61-.02-12.9-14.59-24.37-28.54c-.86-1.05-2.31-2.12-3.71-2.24-12.79-1.09-23.32-.16-39.81-.22-1.71 0-3.58.49-5.44.51q-.64.01-.22.49l3.18 3.68q2.41 5.52 5.53 10.58c2.91 4.71 7.98 7.67 10.58 12.5 1.47 2.73 2.43 4.95 4.8 7.03q4.06 3.55 8.58 6.5 1.59 1.05 1.47 4.14a1.53 1.5 28.1 0 0 .3.96q2.36 3.13 2.26 7.06-.02.43-.26.79c-5.94 8.69-10.8 17.04-18.8 24.14-2.03 1.8-3.83 4.57-6.55 6.26a1.27 1.27 0 0 0-.53.72q-.59 2.13-3.34 2.64-2.68.48-5.71 3.33-.36.34-.86.37c-4.05.31-9.79.1-10.55-4.71q-.07-.48-.46-.77-3.47-2.62-4.8-6.59c-1.58-4.72-2.93-7.65-4.27-11.58q-.17-.49-.64-.7c-2.35-1.05-2.53-2.15-2.55-4.82-.02-1.97-1.58-3.32-2.19-4.75q-1.09-2.55-2.09-5.16-.18-.45-.6-.67c-1.94-1.02-.57-3.47-2.81-4.38q-.42-.17-.74-.48l-3.02-2.94a.86.83 19.8 0 1-.26-.53c-.58-5.35-3.26-9.68-4.9-13.61-1.14-2.71-2.67-7.55-5.55-8.4q-.47-.14-.71-.57c-.96-1.71-1.91-2.93-2.28-4.95-1.32-7.1-4.84-10.96-8.7-16.06q-.32-.42-.83-.52c-.94-.2-1.34-.64-2.31-.71q-22.29-1.52-44.64-.82c-10.14.31-7.66 2.96-12.49 9.41q-3.03 4.04-6.2 8.12a1.35 1.34 63.2 0 0-.29.89c.31 8.11-6.43 12.22-7.69 19.7q-.09.49-.39.88c-2.88 3.69-5.36 7.56-8.09 11.35q-1.96 2.71-2.43 6.1c-.36 2.65-2.8 3.6-3.62 5.92q-.46 1.28-.72 2.69a1.84 1.76-20.2 0 1-.41.84c-1.95 2.18-3.85 5.14-3.85 8.16q-.01 1.41-.73 2.05c-1.63 1.46-4.91 5.54-6.68 6.18q-1.23.44-1.65.4a2.85 2.84-87 0 1-2.61-2.9c.07-3.11-1.7-5.38-1.93-8.33-.2-2.54-.5-4.44-.23-7.25.35-3.58-1.24-6.6-1.47-9.62q-.7-9.36-.9-18.86l-.14-33.09q0-.47-.47-.51-8.23-.71-16.25.05c-.4-.61-.96-1.07-1.74-1.08q-15.23-.24-30.44.04c-2.23.04-5.69-.45-8.68.28a1.14 1.13 7.1 0 0-.74.57q-.6 1.13-1.79 1.5-.52.17-.74.68c-1.74 4.11-4.38 7.3-6.11 11.36-1.15 2.69-3.44 5.27-5.03 7.76-2.34 3.65-5.12 7.23-6.66 11.88q-.16.49-.53.84-2.72 2.62-3.26 6.48-.07.5-.46.83c-1.69 1.41-4.98 1.27-7.16 1.46q-.5.05-.79.46-.31.44-.83.46-.56.03-1.17-.54c-3-2.82-2.91-6.09-4.66-8.94-1.64-2.66-4.43-5.12-5.38-7.99-1.03-3.11-1.51-6.2-2.94-8.94-2.15-4.13-4.91-7.73-6.95-11.99-5.45-11.36-9.72-6.14-19.58-6.38q-9.67-.24-19.24.94Zm495.24 17.47a14.9 14.9 0 0 0-14.9-14.9 14.9 14.9 0 0 0-14.9 14.9 14.9 14.9 0 0 0 14.9 14.9 14.9 14.9 0 0 0 14.9-14.9Z"/><path fill="#20adec" d="M396.98 413.51a.99.99 0 0 1-.99.99h-39.78a.99.99 0 0 1-.99-.99V301.63a.99.99 0 0 1 .99-.99h39.78a.99.99 0 0 1 .99.99v111.88Zm-6.43-106.47a.26.26 0 0 0-.26-.26h-28.76a.26.26 0 0 0-.26.26v100.82a.26.26 0 0 0 .26.26h28.76a.26.26 0 0 0 .26-.26V307.04Z"/><path fill="#041928" d="m575.03 302.92-40.59.03q-.51 0-.75.46-13.28 25.85-27.14 51.4-1.6 2.96-3.45 5.81-.29.44-.55-.02c-10.04-17.99-18.84-36.64-28.27-54.95-.83-1.6-2.02-3.01-3.77-2.94q-17.09.72-30.36-.11 9.57-1.18 19.24-.94c9.86.24 14.13-4.98 19.58 6.38 2.04 4.26 4.8 7.86 6.95 11.99 1.43 2.74 1.91 5.83 2.94 8.94.95 2.87 3.74 5.33 5.38 7.99 1.75 2.85 1.66 6.12 4.66 8.94q.61.57 1.17.54.52-.02.83-.46.29-.41.79-.46c2.18-.19 5.47-.05 7.16-1.46q.39-.33.46-.83.54-3.86 3.26-6.48.37-.35.53-.84c1.54-4.65 4.32-8.23 6.66-11.88 1.59-2.49 3.88-5.07 5.03-7.76 1.73-4.06 4.37-7.25 6.11-11.36q.22-.51.74-.68 1.19-.37 1.79-1.5a1.14 1.13 7.1 0 1 .74-.57c2.99-.73 6.45-.24 8.68-.28q15.21-.28 30.44-.04c.78.01 1.34.47 1.74 1.08ZM761.7 307.44l38.97 46.2a1.26 1.26 0 0 1-.02 1.64c-5.12 5.89-9.93 12.58-15.57 18.03-3.58 3.47-6.09 7.21-10.02 11.49q-2.97 3.23-6.61 7.84-6.35 8.05-13.85 15.11-.36.34-.78.08-1.7-1.07-2.21-2.5-2.54-7.28-6.44-13.88c-1.34-2.27-2.18-4.85-3.24-6.88-10.36-19.78-20.16-39.87-30.58-59.61-3.75-7.1-6.47-13.26-11.37-21.95q-.21-.36-.62-.36l-49.28.19a3.14 3.14 0 0 0-2.78 1.71l-54.54 106.26a.52.52 0 0 1-.98-.25c.17-9.39-.96-19.46-.01-28.77.04-.47-.11-.76-.31-1.15q-.23-.44-.25-.94-.44-19.57-.06-39.14.04-2.03.74-4.09.2 9.5.9 18.86c.23 3.02 1.82 6.04 1.47 9.62-.27 2.81.03 4.71.23 7.25.23 2.95 2 5.22 1.93 8.33a2.85 2.84-87 0 0 2.61 2.9q.42.04 1.65-.4c1.77-.64 5.05-4.72 6.68-6.18q.72-.64.73-2.05c0-3.02 1.9-5.98 3.85-8.16a1.84 1.76-20.2 0 0 .41-.84q.26-1.41.72-2.69c.82-2.32 3.26-3.27 3.62-5.92q.47-3.39 2.43-6.1c2.73-3.79 5.21-7.66 8.09-11.35q.3-.39.39-.88c1.26-7.48 8-11.59 7.69-19.7a1.35 1.34 63.2 0 1 .29-.89q3.17-4.08 6.2-8.12c4.83-6.45 2.35-9.1 12.49-9.41q22.35-.7 44.64.82c.97.07 1.37.51 2.31.71q.51.1.83.52c3.86 5.1 7.38 8.96 8.7 16.06.37 2.02 1.32 3.24 2.28 4.95q.24.43.71.57c2.88.85 4.41 5.69 5.55 8.4 1.64 3.93 4.32 8.26 4.9 13.61a.86.83 19.8 0 0 .26.53l3.02 2.94q.32.31.74.48c2.24.91.87 3.36 2.81 4.38q.42.22.6.67 1 2.61 2.09 5.16c.61 1.43 2.17 2.78 2.19 4.75.02 2.67.2 3.77 2.55 4.82q.47.21.64.7c1.34 3.93 2.69 6.86 4.27 11.58q1.33 3.97 4.8 6.59.39.29.46.77c.76 4.81 6.5 5.02 10.55 4.71q.5-.03.86-.37 3.03-2.85 5.71-3.33 2.75-.51 3.34-2.64a1.27 1.27 0 0 1 .53-.72c2.72-1.69 4.52-4.46 6.55-6.26 8-7.1 12.86-15.45 18.8-24.14q.24-.36.26-.79.1-3.93-2.26-7.06a1.53 1.5 28.1 0 1-.3-.96q.12-3.09-1.47-4.14-4.52-2.95-8.58-6.5c-2.37-2.08-3.33-4.3-4.8-7.03-2.6-4.83-7.67-7.79-10.58-12.5q-3.12-5.06-5.53-10.58Z"/><path fill="#20adec" d="m761.7 307.44-3.18-3.68q-.42-.48.22-.49c1.86-.02 3.73-.51 5.44-.51 16.49.06 27.02-.87 39.81.22 1.4.12 2.85 1.19 3.71 2.24q11.47 13.95 24.37 28.54.8.9 1.61.02c8.98-9.75 16.67-19.81 22.58-27.75 2.14-2.88 3.98-3.57 7.75-3.54q18 .15 35.99.33 4.15.04 6.78.69.72.17.24.74l-28.58 33.71-13.3 16.06a.8.79-45.9 0 0 .01 1.04l50.86 58.26v.39q0 .45-.45.49-.63.04-.46.31-.43-.38-.66-.38-21.34.22-42.69.41-2.5.03-6.48-.45-.52-.06-.87-.46l-30.79-36.03q-.54-.63-1.1-.02l-33.18 36.5q-.29.32-.73.31-16.08-.4-32.16-.24-25.32.25-50.57-.52a1.55 1.54 78.5 0 1-1.35-.9c-2.71-5.88-4.87-11.88-8.93-16.97q-.31-.39-.8-.41c-15.27-.78-27.21.46-40.86.04q-10.02-.31-20.1-.31c-3.28-.01-3.36 2.98-4.5 5.04q-3.84 6.95-8.01 13.74-.27.43-.77.45-13.43.64-26.81.3c-17.48-.45-31.74-.27-47.82 0-.39-3.75.19-7.89.1-11.14-.41-15.24.55-30.82-.49-45.96-.55-7.95 1.23-14.08.11-20.84a.62.62 0 0 0-1.17-.17l-37.73 76.61q-.23.48-.76.53-12.92 1.3-25.89.25a2.7 2.67 78.9 0 1-2.19-1.49l-37.21-75.57q-.68-1.39-.68.15l-.09 77.2q0 .35-.35.35h-35.53q-.5 0-.49-.49l.19-109.26q0-1.97 1.97-1.98l24.44-.2q13.27.83 30.36.11c1.75-.07 2.94 1.34 3.77 2.94 9.43 18.31 18.23 36.96 28.27 54.95q.26.46.55.02 1.85-2.85 3.45-5.81 13.86-25.55 27.14-51.4.24-.46.75-.46l40.59-.03q8.02-.76 16.25-.05.47.04.47.51l.14 33.09q-.7 2.06-.74 4.09-.38 19.57.06 39.14.02.5.25.94c.2.39.35.68.31 1.15-.95 9.31.18 19.38.01 28.77a.52.52 0 0 0 .98.25l54.54-106.26a3.14 3.14 0 0 1 2.78-1.71l49.28-.19q.41 0 .62.36c4.9 8.69 7.62 14.85 11.37 21.95 10.42 19.74 20.22 39.83 30.58 59.61 1.06 2.03 1.9 4.61 3.24 6.88q3.9 6.6 6.44 13.88.51 1.43 2.21 2.5.42.26.78-.08 7.5-7.06 13.85-15.11 3.64-4.61 6.61-7.84c3.93-4.28 6.44-8.02 10.02-11.49 5.64-5.45 10.45-12.14 15.57-18.03a1.26 1.26 0 0 0 .02-1.64l-38.97-46.2Zm-321.5 1.66-19.68.23a.75.75 0 0 0-.74.75l.05 97.21a.95.95 0 0 0 .96.95l22.07-.32q.6-.01.6-.61l.22-49.91q1.06-11.62.03-23.49l.54-3.15 9.17.48q.56.03.83.54c12.9 24.2 25.36 50.91 37.8 76.39a1.12 1.12 0 0 0 1.03.64l18.61-.2q1.72-.02 2.47-1.56 5.28-10.84 10.32-21.39c1.94-4.06 6.17-11.19 8.33-17.4.72-2.1 2.3-3.27 3.12-5.49 3.17-8.57 8.05-16.85 12.08-25.09 1.07-2.18 2.54-3.92 3.94-5.93q.26-.36.7-.35l8.42.23a.37.36 90 0 1 .35.36q.03 25.82.19 51.72c.05 8.61.43 15.89-.29 23.73a1.27 1.26 2.3 0 0 1.27 1.37l22.85-.31a.9.87-38.3 0 0 .24-1.74q-.04-.01-.27-.05-.12-.02-.11-.15c.62-10.23.81-20.81.89-31.06.18-22.15-.82-44.3-.43-66.43q.01-.54-.53-.54-7.38.03-14.72-.57c-5.07-.42-10.17.86-14.81.72q-8.64-.26-16.95-.01a2.15 2.14 14.1 0 0-1.81 1.08c-7.17 12.34-13.37 25.03-20.39 37.68q-5.06 9.13-9.65 18.51c-.98 2-3.1 4.21-3.59 7.07a.68.68 0 0 1-1.27.19l-31.88-63.43a2.06 2.04 76.1 0 0-1.86-1.13l-28.1.46Zm273.99 89.93 1.91 4.19c.66 3.73 2.02 5.08 5.98 5.03 7.75-.09 15.51.74 23.17.75a1.41 1.4-11.2 0 0 1.3-1.94q-2.17-5.27-4.91-10.46c-15.16-28.68-29.74-57.81-44.35-86.78a2.86 2.85-12 0 0-2.41-1.56q-6.98-.33-14.13-.54-.81-.02-1.65.4-.34.17-.72.17l-26.62-.28a.84.82-75.4 0 0-.75.45l-50.7 99.82a.33.3 13 0 0 .3.43c1.5.08 2.88.59 4.32.54q10.38-.35 21.46-.29 1.6.01 2.39-1.38l9.34-16.52q.51-.9 1.54-.91l69.01-.38q.47 0 .7.41l4.82 8.85Zm86.25-35.11q-1.79 1.17-1.81 2.45-1.79 4.05-6.14 6.84l-3.03 3.5-25.78 29.12q-2.64 2.98 1.34 3.08 15.99.4 32.06-.46.42-.02.71-.34l35.72-39.49 27.64 32.71c1.79 1.86 4.76 7.39 7.35 7.41q16.01.13 32-.45 1.54-.05 2.99.15.64.09.21-.4l-45.47-52.24a1.99 1.99 0 0 1-.02-2.58l36.96-44.16q.16-.19-.1-.18-8.19.32-16.35-.27c-5.41-.39-10.61-.29-15.95-.63q-.49-.03-.86.3-2.26 2.04-3.59 3.78-12.12 15.85-24.9 31.09-.32.38-.66.01-13.32-15.03-26.11-30.5-1.33-1.6-2.23-2.38-1.77-1.54-2.92-1.56-14.45-.29-29.7.23-1.01.04-.36.81l36.59 43.7a1.42 1.41 45.8 0 1-.02 1.85l-7.57 8.61Z"/><path fill="#20adec" d="M935.39 320.07a14.9 14.9 0 0 1-14.9 14.9 14.9 14.9 0 0 1-14.9-14.9 14.9 14.9 0 0 1 14.9-14.9 14.9 14.9 0 0 1 14.9 14.9Zm-1.53-.04a13.28 13.28 0 0 0-13.28-13.28 13.28 13.28 0 0 0-13.28 13.28 13.28 13.28 0 0 0 13.28 13.28 13.28 13.28 0 0 0 13.28-13.28Z"/><rect width="29.28" height="101.34" x="361.27" y="306.78" rx=".26"/><path d="M933.86 320.03a13.28 13.28 0 0 1-13.28 13.28 13.28 13.28 0 0 1-13.28-13.28 13.28 13.28 0 0 1 13.28-13.28 13.28 13.28 0 0 1 13.28 13.28Zm-10 1.96.56 5.27a.56.56 0 0 0 .68.49l.95-.22a.75.75 0 0 0 .56-.89l-1.42-6.38a1.03.99 56.7 0 1 .15-.8q1.88-2.67.75-5.75a1.21 1.19 2.7 0 0-.62-.67q-4.68-2.15-9.73-.8-.55.14-.62.71-.96 8.2.09 14.05.19 1.06 1.24.85.46-.08.49-.55l.36-5.85q.04-.52.56-.49l5.33.38q.61.04.67.65Z"/><path fill="#041928" d="M444.25 330.76q3.25-1.07 7.21-1.3c3.33-.19 5.24 1.72 6.21 4.63q.16.46.6.67c3.29 1.53 3.6 3.37 3.84 6.68.3 4.13 4.71 6.11 6.19 9.44q1.01 2.25 1.58 4.65c.95 3.94 2.55 6.08 4.92 8.98 1.21 1.48 1.41 3.21 1.79 4.98q.09.4.38.7 1.38 1.4 1.3 3.31-.02.49.22.91 2.13 3.81 4.3 7.6c2.04 3.55 2.61 7.94 5 11.46q4.71 6.94 7.49 12.57.25.51.82.5l14.9-.36a2.51 2.29-17.1 0 0 2.16-3.66q-1.11-1.53 1.01-3.63 1.9-1.9 2.27-3.39.13-.49.43-.88 1.68-2.2 2.54-4.21c2.2-5.16 3.98-9.37 7.48-13.46q2.48-2.91 2.84-6.9.05-.52.42-.9 3.05-3.07 3.64-7.34.08-.58.46-1.02 1.48-1.77 1.51-4.16.01-.54.45-.84 1.06-.73 1.03-2.14-.02-.53.45-.79 1.69-.94.89-3.17a.7.69 47.6 0 1 .02-.51l3.86-8.85q.26-.6.81-.94 2.06-1.29 2.86-3.58.14-.42.48-.71c1.4-1.21 1.66-2.92 2.87-3.98 2.78-2.44 8.59-1.92 12.5-1.03q.48.11.69.55c2.4 5.05 1.04 16.22.08 22-.33 1.96-.05 8.42.77 10.17q.21.44.2.92-.21 9.79-.37 19.58c-.03 2.22.45 4.95-.42 7.61-1.43 4.39-.11 10.29.87 14.75a.85.83.1 0 0 .66.65q2.56.48 5.17.54c4.4.1 8.74 1.01 13.45-.86q.47-.18.62-.66.53-1.6.3-3.34-.78-5.95.44-11.78.29-1.37.06-2.95c-.37-2.46.02-5.28-.13-7.5q-.19-2.68-.16-7.09l.2-37.51q0-.51-.3-.93c-1.44-2-.62-4.44-.8-6.09q-.49-4.29-.71-8.63-.02-.49-.36-.85l-6.17-6.71a1.23 1.21-14.9 0 0-.67-.38c-5.99-1.21-12.36-.01-16.96-.1-4.23-.08-8.66-.69-12.87-.24q-1.76.18-3.56-.03a.76.75-66.4 0 0-.65.26l-6.36 7.29q-.35.4-.49.91c-.63 2.24-2.56 3.88-3.46 5.63q-1.65 3.2-3.76 5.51-2.17 2.36-1.53 5.37.11.5-.23.88c-2.03 2.34-3.37 5.03-5.2 7.55-1.29 1.77-.24 3.29-2.05 5.24a1.15 1.14-25.2 0 0-.3.82q.07 1.82-1.37 2.65-.32.18-.45.52l-2.21 5.32q-.2.48-.68.66c-1.81.69-1.66 2.52-2.28 3.65q-2.75 5.04-6.48 9.97a2.51 2.5-45.3 0 1-3.98.03q-2.31-2.97-4.58-6.82c-.72-1.24-1.9-1.7-2.97-2.63q-.37-.32-.52-.8-3.04-10.23-4.21-12.71-.41-.88-2.23-3.51-.28-.42-.25-.91.05-.72-.84-.74-2.66-1.91-4.06-4.91-.22-.47-.12-.98c.86-4.53-1.95-5.84-3.7-8.69-1.81-2.95-3.06-4.98-4.82-8.78q-1.32-2.85-4.4-4.3-.46-.21-.58-.7c-1.13-5.02-4.27-4.96-7.89-7.62a1.38 1.37-28.9 0 0-.92-.26q-9.16.77-18.24-.01l28.1-.46a2.06 2.04 76.1 0 1 1.86 1.13l31.88 63.43a.68.68 0 0 0 1.27-.19c.49-2.86 2.61-5.07 3.59-7.07q4.59-9.38 9.65-18.51c7.02-12.65 13.22-25.34 20.39-37.68a2.15 2.14 14.1 0 1 1.81-1.08q8.31-.25 16.95.01c4.64.14 9.74-1.14 14.81-.72q7.34.6 14.72.57.54 0 .53.54c-.39 22.13.61 44.28.43 66.43-.08 10.25-.27 20.83-.89 31.06q-.01.13.11.15.23.04.27.05a.9.87-38.3 0 1-.24 1.74l-22.85.31a1.27 1.26 2.3 0 1-1.27-1.37c.72-7.84.34-15.12.29-23.73q-.16-25.9-.19-51.72a.37.36 90 0 0-.35-.36l-8.42-.23q-.44-.01-.7.35c-1.4 2.01-2.87 3.75-3.94 5.93-4.03 8.24-8.91 16.52-12.08 25.09-.82 2.22-2.4 3.39-3.12 5.49-2.16 6.21-6.39 13.34-8.33 17.4q-5.04 10.55-10.32 21.39-.75 1.54-2.47 1.56l-18.61.2a1.12 1.12 0 0 1-1.03-.64c-12.44-25.48-24.9-52.19-37.8-76.39q-.27-.51-.83-.54l-9.17-.48ZM716.1 403.22l3.23 2.61q.4.32.92.32l9.62-.15a3.47 3.47 0 0 0 3.17-2.16c1.27-3.1 3.18-3.96 3.81-7.74a1.42 1.33-19.4 0 1 .39-.75c1.74-1.75-1.93-5.83-3.14-6.85-2.16-1.8-2.81-3.13-2.37-5.76q.08-.49-.19-.92c-2.16-3.51-3.64-6.98-5.98-10.53q-2.97-4.52-4.62-9.71c-1.19-3.72-5.04-5.66-6.51-9.33-1.14-2.85-1.05-5.78-2.44-8.43q-2.69-5.16-5.24-10.38c-1.56-3.19-3.32-7.38-5.51-9.18-3.12-2.56.45-5.28-2.89-8.34q-.34-.31-.57-.72l-2.44-4.42q-.24-.43-.7-.62c-1.08-.41-1.96-.8-3.16-.83q-20.26-.44-34.73-.34c-2 .01-2.21 1.53-3.1 2.63q-2.52 3.11-4.58 6.57c-.82 1.38-2.26 2.11-3.05 3.64-.91 1.78.3 3.82-1.87 5.44q-.47.35-.71.88-1.01 2.15-2.7 3.81a1.76 1.76 0 0 0-.51.99q-.87 5.21-3.75 9.64-.26.41-.69.64-.63.32-.82.76c-1.52 3.6-3.51 6.94-4.66 10.66q-.33 1.06-1.11 2.57-3.42 6.56-6.99 13.06c-1.35 2.44-3.58 4.67-4.08 8.29q-.07.51-.38.91c-3.88 4.9-5.73 10.1-8.12 15.78q-.35.81-1.09 1.7c-1.53 1.82-1.91 5.51-2.43 7.84q-.51 2.25 1.9 2.35 7.87.33 14.68-.25c5.99-.51 4.7-3.8 6.95-7.61 2.2-3.72 5.05-6.53 7.93-10.81q.26-.4.75-.45c2.35-.23 4.12.54 6.38.23q9.26-1.27 18.56.23c5.17.83 12.8-.99 18.73-.8 9.26.31 18.7-.75 27.75 1.24q.51.11.88.47 3.2 3.14 5.15 7.2a.62.61-10.9 0 1-.6.88q-1.03-.07-.98 1.55l-4.82-8.85q-.23-.41-.7-.41l-69.01.38q-1.03.01-1.54.91l-9.34 16.52q-.79 1.39-2.39 1.38-11.08-.06-21.46.29c-1.44.05-2.82-.46-4.32-.54a.33.3 13 0 1-.3-.43l50.7-99.82a.84.82-75.4 0 1 .75-.45l26.62.28q.38 0 .72-.17.84-.42 1.65-.4 7.15.21 14.13.54a2.86 2.85-12 0 1 2.41 1.56c14.61 28.97 29.19 58.1 44.35 86.78q2.74 5.19 4.91 10.46a1.41 1.4-11.2 0 1-1.3 1.94c-7.66-.01-15.42-.84-23.17-.75-3.96.05-5.32-1.3-5.98-5.03Z"/><path d="m861.15 401.33.09-2.81q.02-.5-.31-.87c-3.01-3.35-5.98-6.43-8.85-10.14-1.39-1.8-3.83-3.42-4.68-5.4q-.47-1.1-1.05-2.14-.24-.42-.68-.64-.57-.29-.81-.83c-.96-2.22-2.69-3.95-4.66-5.3-1.74-1.19-2.43-2.45-3.63-4.03a1.08 1.04-16.3 0 0-.78-.41l-2.28-.14-35.72 39.49q-.29.32-.71.34-16.07.86-32.06.46-3.98-.1-1.34-3.08l25.78-29.12q2.53-1.38 3.03-3.5 4.35-2.79 6.14-6.84 1.54-1.09 1.81-2.45l7.57-8.61a1.42 1.41 45.8 0 0 .02-1.85l-36.59-43.7q-.65-.77.36-.81 15.25-.52 29.7-.23 1.15.02 2.92 1.56.9.78 2.23 2.38 12.79 15.47 26.11 30.5.34.37.66-.01 12.78-15.24 24.9-31.09 1.33-1.74 3.59-3.78.37-.33.86-.3c5.34.34 10.54.24 15.95.63q8.16.59 16.35.27.26-.01.1.18l-36.96 44.16a1.99 1.99 0 0 0 .02 2.58l45.47 52.24q.43.49-.21.4-1.45-.2-2.99-.15-15.99.58-32 .45c-2.59-.02-5.56-5.55-7.35-7.41ZM440.2 309.1q9.08.78 18.24.01a1.38 1.37-28.9 0 1 .92.26c3.62 2.66 6.76 2.6 7.89 7.62q.12.49.58.7 3.08 1.45 4.4 4.3c1.76 3.8 3.01 5.83 4.82 8.78 1.75 2.85 4.56 4.16 3.7 8.69q-.1.51.12.98 1.4 3 4.06 4.91.89.02.84.74-.03.49.25.91 1.82 2.63 2.23 3.51 1.17 2.48 4.21 12.71.15.48.52.8c1.07.93 2.25 1.39 2.97 2.63q2.27 3.85 4.58 6.82a2.51 2.5-45.3 0 0 3.98-.03q3.73-4.93 6.48-9.97c.62-1.13.47-2.96 2.28-3.65q.48-.18.68-.66l2.21-5.32q.13-.34.45-.52 1.44-.83 1.37-2.65a1.15 1.14-25.2 0 1 .3-.82c1.81-1.95.76-3.47 2.05-5.24 1.83-2.52 3.17-5.21 5.2-7.55q.34-.38.23-.88-.64-3.01 1.53-5.37 2.11-2.31 3.76-5.51c.9-1.75 2.83-3.39 3.46-5.63q.14-.51.49-.91l6.36-7.29a.76.75-66.4 0 1 .65-.26q1.8.21 3.56.03c4.21-.45 8.64.16 12.87.24 4.6.09 10.97-1.11 16.96.1a1.23 1.21-14.9 0 1 .67.38l6.17 6.71q.34.36.36.85.22 4.34.71 8.63c.18 1.65-.64 4.09.8 6.09q.3.42.3.93l-.2 37.51q-.03 4.41.16 7.09c.15 2.22-.24 5.04.13 7.5q.23 1.58-.06 2.95-1.22 5.83-.44 11.78.23 1.74-.3 3.34-.15.48-.62.66c-4.71 1.87-9.05.96-13.45.86q-2.61-.06-5.17-.54a.85.83.1 0 1-.66-.65c-.98-4.46-2.3-10.36-.87-14.75.87-2.66.39-5.39.42-7.61q.16-9.79.37-19.58.01-.48-.2-.92c-.82-1.75-1.1-8.21-.77-10.17.96-5.78 2.32-16.95-.08-22q-.21-.44-.69-.55c-3.91-.89-9.72-1.41-12.5 1.03-1.21 1.06-1.47 2.77-2.87 3.98q-.34.29-.48.71-.8 2.29-2.86 3.58-.55.34-.81.94l-3.86 8.85a.7.69 47.6 0 0-.02.51q.8 2.23-.89 3.17-.47.26-.45.79.03 1.41-1.03 2.14-.44.3-.45.84-.03 2.39-1.51 4.16-.38.44-.46 1.02-.59 4.27-3.64 7.34-.37.38-.42.9-.36 3.99-2.84 6.9c-3.5 4.09-5.28 8.3-7.48 13.46q-.86 2.01-2.54 4.21-.3.39-.43.88-.37 1.49-2.27 3.39-2.12 2.1-1.01 3.63a2.51 2.29-17.1 0 1-2.16 3.66l-14.9.36q-.57.01-.82-.5-2.78-5.63-7.49-12.57c-2.39-3.52-2.96-7.91-5-11.46q-2.17-3.79-4.3-7.6-.24-.42-.22-.91.08-1.91-1.3-3.31-.29-.3-.38-.7c-.38-1.77-.58-3.5-1.79-4.98-2.37-2.9-3.97-5.04-4.92-8.98q-.57-2.4-1.58-4.65c-1.48-3.33-5.89-5.31-6.19-9.44-.24-3.31-.55-5.15-3.84-6.68q-.44-.21-.6-.67c-.97-2.91-2.88-4.82-6.21-4.63q-3.96.23-7.21 1.3l-.54 3.15q-1.82 12.23-.03 23.49l-.22 49.91q0 .6-.6.61l-22.07.32a.95.95 0 0 1-.96-.95l-.05-97.21a.75.75 0 0 1 .74-.75l19.68-.23ZM716.1 403.22l-1.91-4.19q-.05-1.62.98-1.55a.62.61-10.9 0 0 .6-.88q-1.95-4.06-5.15-7.2-.37-.36-.88-.47c-9.05-1.99-18.49-.93-27.75-1.24-5.93-.19-13.56 1.63-18.73.8q-9.3-1.5-18.56-.23c-2.26.31-4.03-.46-6.38-.23q-.49.05-.75.45c-2.88 4.28-5.73 7.09-7.93 10.81-2.25 3.81-.96 7.1-6.95 7.61q-6.81.58-14.68.25-2.41-.1-1.9-2.35c.52-2.33.9-6.02 2.43-7.84q.74-.89 1.09-1.7c2.39-5.68 4.24-10.88 8.12-15.78q.31-.4.38-.91c.5-3.62 2.73-5.85 4.08-8.29q3.57-6.5 6.99-13.06.78-1.51 1.11-2.57c1.15-3.72 3.14-7.06 4.66-10.66q.19-.44.82-.76.43-.23.69-.64 2.88-4.43 3.75-9.64a1.76 1.76 0 0 1 .51-.99q1.69-1.66 2.7-3.81.24-.53.71-.88c2.17-1.62.96-3.66 1.87-5.44.79-1.53 2.23-2.26 3.05-3.64q2.06-3.46 4.58-6.57c.89-1.1 1.1-2.62 3.1-2.63q14.47-.1 34.73.34c1.2.03 2.08.42 3.16.83q.46.19.7.62l2.44 4.42q.23.41.57.72c3.34 3.06-.23 5.78 2.89 8.34 2.19 1.8 3.95 5.99 5.51 9.18q2.55 5.22 5.24 10.38c1.39 2.65 1.3 5.58 2.44 8.43 1.47 3.67 5.32 5.61 6.51 9.33q1.65 5.19 4.62 9.71c2.34 3.55 3.82 7.02 5.98 10.53q.27.43.19.92c-.44 2.63.21 3.96 2.37 5.76 1.21 1.02 4.88 5.1 3.14 6.85a1.42 1.33-19.4 0 0-.39.75c-.63 3.78-2.54 4.64-3.81 7.74a3.47 3.47 0 0 1-3.17 2.16l-9.62.15q-.52 0-.92-.32l-3.23-2.61Zm-51.13-30.55 13.52-.04 1.73-.18 12.34-.17 7.01-.41q.69-.04.41-.67c-7.39-16.49-17.57-33.83-25.56-46.63q-.33-.53-.16-1.01a.49.49 0 0 0-.9-.39l-12.1 23.93q-.16.3-.48.38-.31.07-.28.49-5.96 12.13-12.03 24.27-.24.47.3.47l16.2-.04Z"/><path fill="#20adec" d="m923.19 321.34-5.33-.38q-.52-.03-.56.49l-.36 5.85q-.03.47-.49.55-1.05.21-1.24-.85-1.05-5.85-.09-14.05.07-.57.62-.71 5.05-1.35 9.73.8a1.21 1.19 2.7 0 1 .62.67q1.13 3.08-.75 5.75a1.03.99 56.7 0 0-.15.8l1.42 6.38a.75.75 0 0 1-.56.89l-.95.22a.56.56 0 0 1-.68-.49l-.56-5.27q-.06-.61-.67-.65Zm1.43-6.011a1.6 1.6 0 0 0-1.522-1.674l-4.336-.204a1.6 1.6 0 0 0-1.673 1.523l-.11 2.317a1.6 1.6 0 0 0 1.523 1.674l4.336.204a1.6 1.6 0 0 0 1.673-1.523l.11-2.317Z"/><rect width="7.54" height="5.52" x="-3.77" y="-2.76" rx="1.6" transform="rotate(2.7 -6250.664 19694.522)"/><path fill="#20adec" d="M692.56 372.28q-6.17-1.08-12.34.17l-1.73.18q-6.8-1.14-13.52.04l-16.2.04q-.54 0-.3-.47 6.07-12.14 12.03-24.27-.03-.42.28-.49.32-.08.48-.38l12.1-23.93a.49.49 0 0 1 .9.39q-.17.48.16 1.01c7.99 12.8 18.17 30.14 25.56 46.63q.28.63-.41.67l-7.01.41Zm-33.02-5.12 28.11-.19q.47-.01.87-.27 1.25-.84 2.54-.23.8.37.37-.39-7.52-13.4-14.85-26.9-.83-1.52-2.48-3.41-.39-.45-.69.06-8.43 14.27-15.1 29.47-.82 1.88 1.23 1.86Z"/><path fill="#041928" d="M443.71 333.91q1.03 11.87-.03 23.49-1.79-11.26.03-23.49ZM687.65 366.97l-28.11.19q-2.05.02-1.23-1.86 6.67-15.2 15.1-29.47.3-.51.69-.06 1.65 1.89 2.48 3.41 7.33 13.5 14.85 26.9.43.76-.37.39-1.29-.61-2.54.23-.4.26-.87.27ZM878.44 337.96c.07.74-.06 1.61-.63 2.2q-2.46 2.51-4.17 5.69-.24.43-.65.72c-1.05.7-1.12 2.02-1.68 2.95q-1.7 2.82-4.02 5.15-.4.39-.11.87 1.95 3.25 5.53 4.66a1.27 1.24-89.2 0 1 .74.78q.46 1.38 1.94 1.74.39.09.67.4c4.67 5.12 8.77 10.71 13.44 15.69q5.22 5.56 10.03 11.48c5.1 6.27 11.5 12.09 16.2 19.46q1.18 1.86.28 3.57l-50.86-58.26a.8.79-45.9 0 1-.01-1.04l13.3-16.06ZM800.44 363.92q-.27 1.36-1.81 2.45.02-1.28 1.81-2.45ZM833.51 368.62l2.28.14a1.08 1.04-16.3 0 1 .78.41c1.2 1.58 1.89 2.84 3.63 4.03 1.97 1.35 3.7 3.08 4.66 5.3q.24.54.81.83.44.22.68.64.58 1.04 1.05 2.14c.85 1.98 3.29 3.6 4.68 5.4 2.87 3.71 5.84 6.79 8.85 10.14q.33.37.31.87l-.09 2.81-27.64-32.71ZM692.56 372.28l-12.34.17q6.17-1.25 12.34-.17ZM678.49 372.63l-13.52.04q6.72-1.18 13.52-.04ZM792.49 373.21q-.5 2.12-3.03 3.5l3.03-3.5Z"/><path fill="#041928" d="M915.1 414.51c-3.42 1.13-6.33 2.79-9.96 2.93q-15.94.64-22.15 0-10.21-1.05-13.73-.94c-5.88.2-11.24-6.9-13.96-11.28-1.2-1.93-2.7-2.52-4.57-3.54q-.44-.23-.68-.67-1.55-2.79-3.09-5.57c-.85-1.55-2.71-2.71-3.49-4.61q-.18-.43-.52-.75l-4.81-4.56a.66.65-24.1 0 0-.51-.19c-2.12.09-3.87 1.22-5.35 1.76q-4.45 1.61-8.89 3.31a1.32 1.31-86.8 0 0-.7.63c-1.59 3.09-4.39 4.84-6.06 7.19-1.43 2.02-2.37 3.96-4.27 5.64-4.03 3.58-7.92 7.93-11.75 11.76q-.36.36-.87.36l-2.83.03q-.5 0-.94.24-1.78.98-4.16 1.06c-5.95.19-11.2-.07-17.08.32-11.93.8-25.58-1.36-34.98-.17-6.02.77-10.43 1.9-15.62-.07q-3.85-1.47-8.02-1.79-.53-.04-.9-.42-3.37-3.49-5.77-7.64-.28-.49-.74-.82l-8.8-6.45a.43.38 64.1 0 0-.22-.09c-5.54-.71-10.95-.38-16.45-1.39q-7.89-1.45-15.94-1.32c-3.27.05-7.24 1.1-11.04 1.04q-.55-.01-1.03.24-2.94 1.55-6.33.92-.44-.08-.82.15l-6.12 3.74q-.48.29-.72.79-3.93 7.9-10.92 13.29-.36.28-.82.25-12.81-.88-19.74.6-4.44.95-7.69.75c-2.12-.13-3.69-1.56-6.3-1.23-3.03.39-5.62-.65-8.44-.39-5.93.53-10.77-.65-15.85-.18-1.69.16-2.86-.39-4.51-.52q-.49-.04-.84-.38-.53-.51-.31-1 .37-.8-.51-.81l-9.38-.12c16.08-.27 30.34-.45 47.82 0q13.38.34 26.81-.3.5-.02.77-.45 4.17-6.79 8.01-13.74c1.14-2.06 1.22-5.05 4.5-5.04q10.08 0 20.1.31c13.65.42 25.59-.82 40.86-.04q.49.02.8.41c4.06 5.09 6.22 11.09 8.93 16.97a1.55 1.54 78.5 0 0 1.35.9q25.25.77 50.57.52 16.08-.16 32.16.24.44.01.73-.31l33.18-36.5q.56-.61 1.1.02l30.79 36.03q.35.4.87.46 3.98.48 6.48.45 21.35-.19 42.69-.41.23 0 .66.38Z"/></svg>